# xmcd
#
# Track frame offsets:
#	150
#	13604
#	27726
#	38851
#	60022
#	84330
#	100195
#	118388
#	145660
#	163002
#	189452
#	207788
#	220525
#	234753
#
# Disc length: 3339 seconds
#
# Revision: 2
# Processed by: cddbd v1.5.2PL0 Copyright (c) Steve Scherf et al.
# Submitted via: EZCDAudioConverter 3.1.7.1
#
DISCID=af0d090e
DTITLE=Natalie Cole - Still Unforgettable
DYEAR=2008
DGENRE=R&B
TTITLE0=Walkin' My Baby Back Home
TTITLE1=Come Rain or Come Shine
TTITLE2=Coffee Time
TTITLE3=Somewhere Along the Way
TTITLE4=You Go to My Head
TTITLE5=Nice 'N' Easy
TTITLE6=Why Don't You Do Right
TTITLE7=Here's That Rainy Day
TTITLE8=But Beautiful
TTITLE9=Lollipops and Roses
TTITLE10=The Best Is Yet to Come
TTITLE11=Something's Gotta Give
TTITLE12=Until the Real Thing Comes Along
TTITLE13=It's All Right with Me
EXTD=
EXTT0=
EXTT1=
EXTT2=
EXTT3=
EXTT4=
EXTT5=
EXTT6=
EXTT7=
EXTT8=
EXTT9=
EXTT10=
EXTT11=
EXTT12=
EXTT13=
PLAYORDER=
